<?xml version="1.0" standalone="no"?>
<!DOCTYPE svg PUBLIC "-//W3C//DTD SVG 20010904//EN"
 "http://www.w3.org/TR/2001/REC-SVG-20010904/DTD/svg10.dtd">
<svg version="1.0" xmlns="http://www.w3.org/2000/svg"
 width="768.000000pt" height="768.000000pt" viewBox="0 0 768.000000 768.000000"
 preserveAspectRatio="xMidYMid meet">
<metadata>
Created by potrace 1.10, written by Peter Selinger 2001-2011
</metadata>
<g transform="translate(0.000000,768.000000) scale(0.100000,-0.100000)"
fill="#000000" stroke="none">
<path d="M2210 6620 c-58 -4 -115 -12 -127 -18 -12 -7 -30 -12 -40 -12 -10 0
-31 -7 -47 -15 -15 -8 -33 -15 -38 -15 -26 0 -140 -81 -199 -142 -61 -62 -149
-193 -149 -222 0 -7 -4 -16 -9 -21 -12 -13 -47 -143 -63 -233 -14 -80 -15 -81
-113 -122 -27 -12 -59 -25 -70 -30 -18 -8 -65 -28 -145 -62 -14 -5 -38 -16
-55 -22 -16 -7 -46 -19 -65 -28 -19 -8 -51 -21 -70 -30 -19 -8 -51 -21 -70
-30 -78 -33 -110 -52 -123 -72 -48 -73 -26 -116 98 -190 51 -31 96 -56 99 -56
3 0 50 -27 104 -60 55 -33 102 -60 105 -60 4 0 51 -27 105 -60 55 -33 104 -60
109 -60 6 0 17 -8 26 -18 20 -22 23 -133 7 -240 -5 -37 -14 -125 -20 -197 -5
-71 -14 -194 -21 -273 -8 -107 -8 -180 0 -290 19 -236 29 -325 40 -355 6 -16
11 -39 11 -52 0 -33 73 -276 107 -355 53 -125 181 -353 213 -380 3 -3 29 -34
57 -70 62 -79 196 -210 278 -271 64 -49 213 -147 256 -170 130 -68 309 -149
331 -149 8 0 18 -4 24 -9 5 -4 43 -18 84 -31 41 -12 86 -27 99 -32 14 -5 43
-13 65 -18 23 -5 68 -16 100 -23 33 -7 64 -21 70 -30 9 -15 -1 -51 -44 -152
-5 -11 -19 -45 -30 -75 -12 -30 -26 -64 -30 -75 -5 -11 -19 -45 -31 -75 -12
-30 -28 -69 -35 -87 -8 -17 -14 -37 -14 -45 0 -8 -4 -18 -8 -23 -4 -6 -18 -37
-31 -70 -12 -33 -27 -69 -31 -80 -5 -11 -19 -45 -30 -75 -12 -30 -25 -62 -29
-70 -7 -12 -43 -16 -198 -20 -198 -5 -205 -7 -245 -55 -41 -48 -10 -138 54
-156 24 -6 337 -9 877 -7 l841 3 26 26 c37 37 43 95 13 133 -39 50 -70 56
-279 56 -213 0 -205 -3 -172 73 10 23 27 62 36 87 10 25 22 54 27 65 4 11 18
45 29 75 12 30 26 64 30 75 5 11 19 45 30 75 12 30 26 64 30 75 5 11 19 45 31
75 12 30 28 69 35 87 8 17 14 35 14 40 0 6 9 18 19 27 17 16 55 19 293 27 150
5 293 13 318 18 25 6 70 10 100 10 30 1 93 7 140 15 47 8 118 20 158 25 84 13
79 15 212 -80 47 -33 103 -73 125 -87 22 -15 45 -31 52 -37 6 -5 41 -30 77
-55 36 -25 94 -65 129 -90 36 -25 74 -52 87 -60 12 -8 52 -37 88 -64 l67 -48
65 5 c36 3 85 10 110 16 40 9 129 23 240 37 61 8 222 34 306 49 45 8 94 15
109 15 40 0 90 35 110 76 16 33 15 37 -4 77 -11 23 -33 49 -48 58 -16 9 -71
47 -123 83 -52 36 -103 71 -114 78 -10 7 -37 27 -60 43 -22 17 -68 49 -101 71
-186 126 -221 150 -232 159 -6 6 -41 30 -77 55 -37 25 -155 110 -264 190 -108
80 -209 153 -224 163 -84 53 -189 -28 -156 -120 11 -31 46 -61 209 -182 107
-80 206 -153 218 -161 12 -8 51 -35 86 -60 35 -25 113 -79 174 -120 61 -41
119 -81 129 -88 36 -27 150 -108 168 -119 17 -10 17 -13 4 -22 -22 -16 -80
-31 -117 -31 -18 0 -68 -6 -110 -14 -43 -8 -113 -19 -155 -26 -86 -12 -79 -15
-219 85 -31 22 -66 47 -78 55 -13 8 -51 35 -86 60 -35 25 -93 65 -130 90 -36
25 -71 50 -78 55 -19 16 -74 54 -167 117 -95 65 -113 68 -229 44 -72 -16 -210
-36 -281 -42 -25 -2 -112 -11 -195 -20 -117 -12 -232 -15 -520 -12 -410 5
-555 18 -835 75 -142 29 -339 85 -417 119 -17 8 -36 14 -42 14 -6 0 -19 4 -29
9 -9 5 -62 32 -117 59 -154 75 -212 109 -312 184 -205 153 -352 326 -464 544
-31 62 -60 126 -64 143 -4 17 -11 33 -16 36 -5 4 -9 15 -9 25 0 11 -6 34 -14
52 -50 120 -95 431 -96 673 0 121 12 317 31 477 19 168 30 450 19 482 -10 31
-88 83 -250 169 -30 16 -59 33 -65 37 -5 4 -39 24 -75 43 -163 88 -163 86 -37
140 20 9 52 23 70 30 17 8 52 23 77 33 25 9 65 26 90 37 25 11 72 32 105 46
63 27 97 48 108 68 4 6 14 65 23 130 21 165 44 236 110 334 64 97 139 150 270
192 39 13 90 17 208 17 185 0 253 -14 385 -78 52 -25 153 -131 180 -187 21
-44 68 -197 90 -295 13 -54 43 -144 52 -155 5 -5 9 -18 9 -30 0 -12 7 -30 15
-41 8 -10 15 -25 15 -32 0 -13 6 -28 47 -122 8 -19 21 -48 28 -65 11 -28 28
-65 114 -245 46 -96 166 -316 186 -340 7 -8 16 -25 19 -37 4 -13 12 -23 17
-23 5 0 9 -6 9 -13 0 -8 14 -33 30 -55 17 -23 30 -44 30 -47 0 -21 294 -432
455 -635 82 -103 212 -258 265 -315 26 -27 66 -72 90 -100 24 -27 138 -144
252 -258 114 -115 208 -213 208 -218 0 -12 -552 -12 -621 1 -30 5 -97 14 -149
20 -225 23 -560 102 -707 166 -17 8 -36 14 -42 14 -6 0 -27 7 -48 16 -21 9
-51 23 -68 30 -118 50 -368 189 -407 227 -7 7 -41 34 -76 61 -76 60 -161 168
-200 256 -15 36 -37 110 -47 165 -18 95 -18 103 -1 190 16 83 36 148 57 185 4
8 17 32 28 52 24 43 52 76 139 163 57 57 62 65 62 106 0 50 -3 56 -44 87 -56
43 -109 23 -212 -82 -232 -235 -308 -567 -203 -889 21 -64 22 -65 76 -157 45
-78 61 -98 133 -170 88 -87 179 -156 326 -247 21 -14 278 -141 309 -154 79
-32 112 -44 205 -75 58 -19 130 -42 160 -50 30 -9 70 -20 87 -25 32 -10 70
-18 188 -39 33 -6 90 -18 126 -26 37 -8 86 -14 110 -14 24 0 62 -5 84 -10 73
-19 453 -29 741 -20 256 7 284 9 322 29 74 38 76 130 4 191 -214 185 -644 618
-808 815 -32 39 -60 72 -64 75 -3 3 -30 37 -60 75 -30 39 -57 72 -61 75 -17
13 -283 379 -350 480 -192 290 -380 636 -489 895 -11 28 -24 57 -29 65 -5 9
-12 30 -15 48 -4 17 -12 34 -17 37 -5 4 -9 13 -9 22 0 8 -6 29 -13 46 -29 69
-62 172 -77 247 -6 25 -14 56 -19 70 -4 14 -17 52 -27 85 -45 145 -177 299
-314 367 -107 52 -145 68 -167 68 -10 0 -38 6 -63 14 -59 18 -238 26 -370 16z
m1355 -4570 c22 -5 88 -13 148 -16 78 -5 107 -11 107 -20 0 -12 -5 -27 -31
-89 -4 -11 -18 -45 -30 -75 -12 -30 -27 -68 -34 -85 -7 -16 -21 -52 -31 -80
-10 -27 -24 -61 -31 -75 -7 -14 -13 -31 -13 -38 0 -7 -4 -20 -10 -30 -19 -35
-50 -111 -50 -125 0 -7 -3 -17 -7 -20 -3 -4 -18 -37 -33 -74 l-27 -68 -217 -3
c-135 -1 -216 1 -216 7 0 9 6 26 31 86 4 11 18 45 29 75 12 30 26 64 30 75 10
22 43 108 67 170 9 22 21 54 28 70 7 17 21 50 30 75 20 53 27 68 54 134 12 27
21 53 21 58 0 5 7 20 16 33 14 22 24 25 73 25 31 0 74 -5 96 -10z"/>
<path d="M2140 5846 c-50 -33 -84 -106 -77 -161 15 -108 98 -168 212 -151 55
9 99 44 125 102 35 76 20 135 -51 199 -37 33 -43 35 -107 35 -54 0 -74 -5
-102 -24z"/>
</g>
</svg>
