<?xml version="1.0" standalone="no"?>
<!DOCTYPE svg PUBLIC "-//W3C//DTD SVG 20010904//EN"
 "http://www.w3.org/TR/2001/REC-SVG-20010904/DTD/svg10.dtd">
<svg version="1.0" xmlns="http://www.w3.org/2000/svg"
 width="900.000000pt" height="900.000000pt" viewBox="0 0 900.000000 900.000000"
 preserveAspectRatio="xMidYMid meet">
<metadata>
Created by potrace 1.10, written by Peter Selinger 2001-2011
</metadata>
<g transform="translate(0.000000,900.000000) scale(0.100000,-0.100000)"
fill="#000000" stroke="none">
<path d="M995 8544 c-97 -35 -164 -85 -228 -169 -39 -52 -56 -85 -96 -180 -38
-90 -73 -237 -93 -395 -17 -139 -17 -501 1 -605 27 -163 79 -427 106 -550 9
-38 20 -95 26 -125 6 -30 14 -68 19 -85 5 -16 16 -64 25 -105 32 -151 71 -330
91 -415 7 -33 18 -85 23 -115 6 -30 17 -86 26 -125 78 -357 126 -812 94 -892
-22 -53 -27 -68 -47 -128 -69 -207 -121 -411 -157 -610 -22 -126 -34 -177 -46
-191 -10 -12 -33 -8 -211 40 -118 32 -146 32 -189 3 -67 -45 -79 -136 -25
-195 30 -34 48 -42 150 -68 217 -55 245 -64 248 -82 2 -8 -1 -112 -6 -230 -4
-120 -4 -277 0 -355 5 -76 5 -145 1 -153 -7 -11 -48 -14 -233 -14 -178 0 -231
-3 -253 -15 -115 -59 -107 -203 14 -248 43 -17 69 -18 183 -14 73 3 184 3 248
0 106 -6 117 -8 124 -27 5 -12 25 -64 46 -116 215 -544 669 -1013 1339 -1382
86 -48 305 -151 420 -198 44 -18 94 -38 110 -45 17 -7 53 -20 80 -30 28 -9 59
-21 70 -25 55 -22 305 -97 420 -124 39 -10 86 -21 105 -26 83 -21 233 -50 330
-65 58 -8 130 -20 160 -26 175 -31 702 -48 930 -29 273 22 451 47 675 92 140
28 427 103 510 133 39 13 77 25 85 25 8 0 28 7 44 15 15 8 32 15 37 15 6 0 62
21 127 46 768 302 1338 729 1680 1259 85 131 205 382 219 458 10 51 26 54 293
52 216 -2 250 0 287 16 81 34 110 135 57 199 -49 58 -61 60 -312 60 -175 0
-231 3 -234 13 -3 6 0 62 5 123 5 67 5 208 0 360 -6 156 -6 254 0 262 9 11 38
21 157 52 181 47 202 55 233 88 57 62 48 150 -21 197 -54 37 -55 36 -337 -41
-47 -12 -51 -12 -67 7 -10 11 -20 37 -23 57 -23 150 -39 234 -51 274 -8 26
-14 56 -14 66 0 11 -7 42 -14 68 -8 27 -22 74 -30 104 -30 106 -64 216 -95
300 -26 71 -31 99 -31 170 1 165 43 474 110 800 5 25 15 77 23 115 8 39 26
124 41 190 29 132 51 234 61 280 3 17 12 57 20 90 13 54 37 163 66 300 35 162
82 407 100 530 18 114 18 454 1 595 -19 149 -59 325 -92 395 -5 11 -19 43 -31
70 -41 95 -141 208 -223 251 -71 36 -133 46 -262 41 -134 -4 -284 -21 -344
-37 -19 -5 -73 -18 -120 -29 -47 -12 -130 -37 -185 -57 -55 -20 -113 -40 -130
-46 -45 -16 -357 -176 -375 -193 -9 -8 -20 -15 -24 -15 -14 0 -147 -92 -286
-196 -284 -214 -611 -545 -835 -844 -59 -80 -74 -93 -100 -84 -11 3 -42 10
-70 14 -27 4 -93 15 -145 24 -472 82 -930 81 -1385 -1 -44 -8 -114 -17 -156
-20 l-77 -5 -48 48 c-27 27 -74 80 -104 118 -151 190 -457 509 -600 624 -178
144 -335 258 -445 324 -252 151 -503 259 -730 313 -38 9 -86 21 -105 26 -118
32 -469 47 -535 23z m155 -278 c205 -103 739 -580 972 -868 344 -424 522 -804
543 -1158 5 -95 9 -108 34 -140 32 -40 81 -60 129 -53 44 7 98 61 104 105 7
40 -8 238 -21 293 -58 246 -78 302 -175 505 -105 221 -272 467 -479 705 -63
73 -350 362 -451 453 -39 36 -55 57 -48 64 6 6 16 6 28 -1 26 -14 111 -51 119
-51 22 0 272 -134 370 -199 344 -226 655 -515 946 -881 96 -120 150 -170 221
-203 31 -15 58 -34 62 -43 3 -8 6 -155 6 -325 0 -289 1 -312 20 -349 27 -54
55 -70 116 -70 64 0 108 32 124 88 6 22 10 167 10 348 0 233 3 314 13 326 6 9
30 18 52 21 22 2 96 11 165 20 229 29 314 36 328 25 9 -8 12 -147 12 -632 0
-692 0 -693 63 -738 73 -52 171 -18 201 69 14 41 16 126 16 669 0 663 -1 654
47 640 10 -3 95 -12 188 -21 94 -8 188 -20 210 -25 22 -5 54 -10 72 -10 22 0
36 -6 43 -19 6 -13 10 -138 10 -338 0 -283 2 -322 18 -352 25 -51 63 -74 115
-74 58 1 82 15 112 63 l25 40 0 292 c0 161 4 298 8 305 4 7 25 18 47 25 34 11
56 35 167 182 153 203 218 276 408 466 179 180 231 227 362 327 156 120 260
189 403 267 122 67 152 81 265 128 25 10 53 23 64 29 12 7 22 7 28 1 7 -7 -9
-28 -48 -63 -130 -117 -416 -411 -505 -519 -186 -225 -328 -438 -423 -635
-138 -287 -193 -493 -195 -727 l-1 -107 35 -36 c32 -32 41 -35 92 -35 52 0 59
3 94 39 36 39 37 42 44 138 14 213 64 387 177 618 55 112 50 105 135 235 165
253 271 380 537 645 224 222 537 476 668 542 63 31 90 25 145 -33 75 -78 117
-196 151 -419 23 -155 23 -495 -1 -630 -34 -196 -45 -261 -55 -305 -6 -25 -18
-81 -27 -125 -9 -44 -20 -93 -25 -110 -5 -16 -12 -52 -16 -80 -3 -27 -10 -57
-15 -66 -4 -9 -13 -43 -19 -75 -5 -32 -17 -88 -26 -124 -15 -62 -29 -126 -59
-270 -7 -36 -21 -99 -30 -140 -26 -116 -56 -272 -90 -470 -7 -41 -13 -77 -14
-79 -3 -12 -45 40 -82 103 -60 101 -232 345 -258 366 -3 3 -24 28 -46 55 -115
144 -361 383 -516 499 -53 40 -67 46 -110 46 -39 0 -55 -5 -82 -29 -18 -17
-39 -47 -46 -68 -22 -67 3 -104 145 -218 151 -122 373 -355 506 -530 173 -230
336 -518 443 -785 90 -225 181 -529 210 -700 3 -19 10 -53 15 -75 5 -22 14
-74 20 -115 6 -41 14 -83 16 -92 6 -21 -37 -45 -116 -65 -30 -7 -80 -21 -110
-29 -30 -8 -74 -19 -98 -24 -23 -5 -51 -14 -61 -20 -11 -5 -28 -10 -39 -10
-11 0 -42 -7 -68 -14 -55 -17 -143 -41 -224 -62 -30 -8 -77 -21 -105 -29 -27
-8 -70 -19 -95 -25 -217 -52 -259 -70 -286 -122 -36 -69 -9 -144 63 -179 48
-23 44 -24 243 30 63 17 140 37 170 45 30 7 100 26 155 40 55 15 134 36 175
47 41 11 98 26 125 34 156 42 290 73 294 69 18 -18 27 -464 12 -597 -4 -42
-13 -72 -22 -78 -8 -5 -224 -9 -497 -9 -529 0 -514 2 -566 -60 -49 -59 -26
-158 46 -197 30 -16 72 -18 478 -20 245 -1 449 -2 454 -2 29 -3 -59 -202 -152
-346 -237 -366 -576 -668 -1038 -925 -114 -64 -278 -143 -406 -195 -35 -14
-72 -30 -83 -35 -123 -54 -413 -146 -610 -194 -310 -74 -454 -96 -820 -126
-264 -22 -317 -22 -620 1 -352 26 -685 88 -1039 193 -141 42 -205 65 -293 102
-17 8 -36 14 -42 14 -6 0 -19 4 -29 10 -9 5 -45 21 -80 35 -352 143 -722 366
-983 592 -52 45 -209 201 -259 258 -52 58 -150 189 -202 270 -54 84 -145 269
-154 313 l-6 32 53 1 c30 1 329 2 664 3 416 2 618 6 636 13 78 33 106 140 53
203 -53 63 -16 60 -776 60 -405 0 -699 4 -708 10 -20 12 -29 117 -29 345 0
175 8 318 19 329 5 4 87 -13 185 -39 33 -9 85 -22 116 -29 31 -7 61 -16 67
-20 6 -3 30 -10 54 -16 24 -5 95 -23 158 -40 63 -18 138 -38 165 -45 51 -14
249 -66 342 -91 29 -8 77 -21 105 -28 29 -8 107 -29 173 -47 164 -44 192 -46
234 -17 71 48 87 124 40 189 -27 38 -52 49 -205 90 -65 17 -141 37 -169 45
-27 7 -104 27 -170 44 -66 18 -144 38 -172 46 -29 8 -77 21 -105 28 -29 8
-107 29 -173 46 -66 18 -145 39 -175 46 -30 7 -107 28 -170 45 -63 17 -138 37
-165 44 -81 20 -116 42 -110 68 3 12 12 63 20 112 18 106 37 205 58 295 14 59
24 99 57 215 20 69 80 246 99 289 10 23 28 68 41 101 30 79 146 315 193 392
20 33 37 63 37 66 0 8 144 220 196 289 77 101 211 254 298 340 81 80 127 121
264 237 87 75 110 117 91 174 -32 97 -134 127 -220 65 -107 -77 -331 -284
-454 -419 -121 -133 -250 -302 -335 -438 -96 -152 -106 -166 -123 -169 -13 -3
-17 4 -17 30 0 18 -5 51 -10 73 -5 22 -14 69 -20 105 -6 36 -15 85 -20 110 -5
25 -17 81 -25 125 -9 44 -28 132 -42 195 -34 152 -52 235 -63 290 -5 25 -18
86 -30 135 -21 89 -39 172 -59 270 -6 28 -15 68 -20 90 -5 22 -17 78 -26 125
-9 47 -23 117 -31 155 -60 298 -59 607 2 895 33 159 95 277 169 321 39 24 47
24 105 -5z"/>
<path d="M2800 4481 c-19 -5 -59 -14 -88 -20 -60 -12 -177 -65 -240 -108 -99
-68 -217 -208 -222 -263 -5 -52 1 -70 29 -103 40 -45 99 -65 141 -47 31 13 90
65 90 79 0 5 21 29 48 55 99 99 225 146 388 146 185 0 329 -66 424 -195 42
-56 101 -96 142 -94 58 2 128 75 128 134 0 40 -15 70 -73 145 -94 120 -242
213 -407 256 -73 18 -304 28 -360 15z"/>
<path d="M5915 4484 c-184 -37 -289 -81 -393 -164 -68 -56 -145 -146 -168
-199 -34 -79 1 -151 88 -182 34 -12 42 -11 82 9 29 13 59 41 85 76 96 130 239
196 425 196 163 0 294 -50 390 -147 25 -25 46 -50 46 -54 0 -17 62 -68 96 -79
45 -15 75 -7 119 31 37 33 57 84 48 121 -16 62 -132 197 -225 261 -131 90
-294 136 -478 135 -52 0 -104 -2 -115 -4z"/>
<path d="M5955 3350 c-228 -26 -409 -179 -650 -550 -145 -223 -182 -275 -241
-336 -69 -72 -94 -84 -168 -84 -145 0 -250 171 -263 430 l-6 106 32 27 c56 47
99 53 179 28 82 -27 128 -22 165 17 79 86 48 188 -72 233 -79 29 -159 41 -212
30 -97 -21 -132 -32 -169 -56 -50 -32 -61 -31 -135 4 -126 62 -218 70 -338 31
-85 -28 -121 -57 -136 -112 -10 -35 -9 -49 3 -78 34 -83 93 -103 197 -70 60
20 75 21 109 11 22 -6 53 -23 70 -37 30 -26 30 -26 29 -127 -1 -172 -27 -276
-87 -341 -23 -25 -42 -54 -42 -64 0 -50 -99 -119 -217 -153 -54 -15 -100 -19
-219 -19 -145 0 -155 1 -223 29 -83 34 -146 82 -201 155 -48 63 -85 86 -143
86 -92 0 -157 -103 -114 -181 67 -126 202 -245 342 -302 120 -49 140 -52 350
-52 217 1 270 10 404 70 33 15 66 25 73 22 8 -2 22 -22 33 -43 29 -56 102
-162 144 -207 83 -90 231 -179 361 -216 41 -12 89 -26 105 -32 42 -16 415 -23
495 -11 126 20 261 54 285 72 6 4 23 10 39 14 74 18 240 110 351 194 136 104
282 264 362 397 46 77 105 213 124 285 20 77 21 101 16 255 -8 228 -37 324
-130 430 -100 114 -291 169 -502 145z m248 -288 c88 -39 117 -119 117 -328 0
-104 -4 -152 -15 -180 -101 -254 -315 -489 -554 -609 -29 -15 -55 -24 -58 -21
-8 8 20 47 75 109 126 141 299 394 387 566 38 76 -1 163 -86 191 -36 12 -44
11 -83 -7 -36 -18 -53 -37 -95 -107 -28 -47 -51 -88 -51 -91 0 -3 -5 -11 -10
-18 -6 -7 -33 -46 -60 -87 -27 -41 -55 -83 -62 -94 -7 -10 -56 -71 -109 -135
-145 -174 -301 -320 -436 -404 -52 -33 -105 -35 -216 -8 -208 51 -348 168
-420 351 -49 124 -39 135 50 51 75 -70 146 -106 255 -128 68 -13 90 -14 132
-4 210 50 306 141 550 518 163 252 262 365 367 421 72 39 86 41 191 37 58 -2
102 -10 131 -23z"/>
</g>
</svg>
