<?xml version="1.0" standalone="no"?>
<!DOCTYPE svg PUBLIC "-//W3C//DTD SVG 20010904//EN"
 "http://www.w3.org/TR/2001/REC-SVG-20010904/DTD/svg10.dtd">
<svg version="1.0" xmlns="http://www.w3.org/2000/svg"
 width="256.000000pt" height="256.000000pt" viewBox="0 0 256.000000 256.000000"
 preserveAspectRatio="xMidYMid meet">
<metadata>
Created by potrace 1.10, written by Peter Selinger 2001-2011
</metadata>
<g transform="translate(0.000000,256.000000) scale(0.050000,-0.050000)"
fill="#000000" stroke="none">
<path d="M342 4853 c-48 -59 -20 -1034 35 -1181 56 -153 118 -259 222 -376
l83 -94 -41 -136 c-83 -281 -100 -522 -53 -786 15 -84 19 -153 9 -157 -313
-119 -443 -519 -266 -813 l66 -110 -67 -112 c-324 -537 319 -1093 825 -714 75
56 185 234 185 301 l0 45 1220 0 1220 0 0 -45 c1 -204 280 -423 540 -423 441
0 698 458 470 836 l-67 112 67 112 c174 289 42 705 -253 799 -26 8 -36 24 -28
44 70 182 55 639 -30 914 l-41 133 83 94 c104 117 166 223 222 376 55 147 83
1122 35 1181 -46 55 -1027 29 -1196 -32 -178 -65 -354 -191 -472 -338 l-100
-125 -130 16 c-71 9 -215 16 -320 16 -104 0 -249 -7 -320 -16 l-130 -16 -100
125 c-118 147 -294 273 -472 338 -169 61 -1150 87 -1196 32z m1056 -154 c230
-53 675 -399 514 -399 -242 0 -871 -475 -1082 -817 l-79 -128 -64 78 c-173
205 -206 345 -207 872 l0 415 415 0 c228 -1 454 -10 503 -21z m3242 -394 c-1
-527 -34 -667 -207 -872 l-64 -78 -79 128 c-211 342 -840 817 -1082 817 -51 0
-29 39 88 155 225 224 357 262 919 264 l425 1 0 -415z m-1600 -123 c890 -229
1469 -1032 1340 -1860 l-25 -162 -64 0 c-116 0 -253 -62 -355 -160 -54 -52
-94 -85 -90 -72 86 224 84 312 -6 312 -53 0 -67 -27 -168 -332 -166 -501 -306
-628 -694 -628 -250 0 -337 84 -338 326 l0 136 155 204 c189 248 207 341 90
459 l-66 65 -259 0 -259 0 -66 -65 c-117 -118 -99 -210 92 -462 l157 -206 -7
-158 c-11 -230 -68 -286 -303 -296 -406 -17 -557 113 -726 625 -101 305 -115
332 -168 332 -90 0 -92 -88 -6 -312 4 -13 -36 20 -90 72 -102 98 -239 160
-355 160 l-64 0 -25 162 c-184 1182 1051 2180 2300 1860z m-264 -1886 c13 -13
24 -39 24 -56 0 -38 -213 -330 -240 -330 -27 0 -240 292 -240 330 0 78 386
126 456 56z m-1854 -319 c150 -51 277 -215 278 -358 0 -73 36 -99 133 -99 73
0 90 -8 115 -55 160 -305 750 -461 1020 -270 l92 64 92 -64 c270 -191 860 -35
1020 269 23 45 43 55 121 60 103 7 110 15 146 166 85 359 562 419 734 92 87
-164 54 -339 -92 -484 -100 -98 -100 -95 7 -205 204 -210 163 -515 -86 -646
-237 -126 -543 31 -576 295 -19 149 86 138 -1366 138 -1452 0 -1347 11 -1366
-138 -33 -264 -339 -421 -576 -295 -249 131 -290 436 -86 646 107 110 107 107
7 205 -314 311 -28 818 383 679z"/>
<path d="M1539 3235 c-145 -73 -227 -284 -134 -343 50 -31 101 7 118 89 8 38
34 84 58 104 94 76 230 22 256 -104 17 -82 68 -120 118 -89 137 86 -78 388
-275 388 -28 0 -92 -20 -141 -45z"/>
<path d="M3299 3235 c-145 -73 -227 -284 -134 -343 50 -31 101 7 118 89 8 38
34 84 58 104 94 76 230 22 256 -104 17 -82 68 -120 118 -89 137 86 -78 388
-275 388 -28 0 -92 -20 -141 -45z"/>
</g>
</svg>
