<?xml version="1.0" standalone="no"?>
<!DOCTYPE svg PUBLIC "-//W3C//DTD SVG 20010904//EN"
 "http://www.w3.org/TR/2001/REC-SVG-20010904/DTD/svg10.dtd">
<svg version="1.0" xmlns="http://www.w3.org/2000/svg"
 width="900.000000pt" height="900.000000pt" viewBox="0 0 900.000000 900.000000"
 preserveAspectRatio="xMidYMid meet">
<metadata>
Created by potrace 1.10, written by Peter Selinger 2001-2011
</metadata>
<g transform="translate(0.000000,900.000000) scale(0.100000,-0.100000)"
fill="#000000" stroke="none">
<path d="M2900 4619 c-166 -17 -375 -44 -440 -59 -105 -23 -308 -72 -350 -85
-157 -49 -441 -154 -497 -184 -10 -5 -65 -33 -123 -62 -235 -117 -336 -179
-555 -343 -279 -208 -456 -395 -607 -641 -54 -89 -128 -225 -128 -237 0 -4
-13 -35 -29 -70 -16 -35 -37 -88 -46 -118 -9 -30 -20 -64 -25 -76 -7 -18 -30
-108 -60 -241 -17 -76 -35 -325 -35 -498 l0 -170 130 0 130 0 6 210 c9 296 14
339 69 565 24 100 66 208 138 360 37 78 144 242 216 330 106 130 204 221 431
398 55 43 260 173 355 225 80 44 287 147 295 147 4 0 21 6 38 14 68 31 166 68
242 92 44 14 89 29 100 34 11 4 40 13 65 19 25 7 79 20 120 31 72 18 211 46
350 69 199 33 1172 44 1403 16 444 -55 526 -69 589 -99 70 -32 95 -33 103 -3
3 12 10 31 15 42 5 11 22 52 39 92 l30 72 -33 21 c-18 11 -38 20 -44 20 -6 0
-35 11 -64 25 -31 14 -88 28 -138 35 -258 31 -467 59 -531 70 -67 12 -1038 11
-1159 -1z"/>
<path d="M5565 4574 c-104 -16 -225 -53 -312 -96 -132 -65 -245 -189 -288
-316 -27 -77 -28 -284 -3 -353 43 -118 148 -272 239 -350 29 -24 57 -49 63
-54 59 -56 315 -191 381 -202 31 -5 35 -3 41 23 3 16 19 67 34 114 17 48 25
90 21 98 -4 8 -37 26 -73 41 -110 45 -225 120 -301 196 -90 89 -91 92 -129
168 -27 54 -32 73 -32 143 0 70 4 87 27 127 51 86 148 146 293 181 90 22 285
18 399 -8 143 -33 599 -275 885 -469 85 -58 409 -298 431 -319 8 -7 55 -45
104 -83 50 -39 137 -107 195 -153 58 -46 112 -89 120 -95 168 -131 150 -107
323 -427 16 -30 33 -59 37 -65 4 -5 23 -39 42 -75 20 -36 44 -81 55 -100 11
-19 39 -71 63 -115 23 -44 46 -84 50 -90 4 -5 21 -35 37 -65 16 -30 63 -116
105 -190 41 -74 92 -166 112 -205 21 -38 42 -74 46 -80 4 -5 24 -40 43 -77 20
-37 40 -75 46 -85 5 -10 27 -47 48 -83 l38 -65 5 -155 5 -155 100 -3 c55 -2
119 0 143 3 l42 6 0 180 c0 154 -2 179 -15 179 -9 0 -19 8 -22 17 -6 16 -52
102 -120 223 -11 19 -39 71 -63 115 -23 44 -46 85 -50 90 -4 6 -21 35 -37 65
-16 30 -67 123 -113 205 -45 83 -95 173 -110 200 -15 28 -37 66 -49 85 -11 19
-24 42 -28 50 -3 8 -29 56 -56 105 -28 50 -64 115 -80 145 -16 30 -40 70 -52
90 -12 19 -25 42 -28 50 -4 8 -23 42 -41 75 -19 33 -49 88 -67 122 -43 83 -53
93 -202 209 -208 161 -242 187 -283 221 -246 200 -520 404 -692 515 -97 63
-320 198 -326 198 -4 0 -23 11 -44 24 -41 26 -308 161 -382 194 -25 10 -76 27
-115 36 -38 10 -86 22 -105 27 -38 11 -306 20 -355 13z"/>
<path d="M7360 2637 c-163 -88 -140 -318 37 -374 50 -16 56 -16 108 1 101 31
154 114 141 219 -11 98 -83 165 -185 174 -46 4 -64 0 -101 -20z"/>
<path d="M5070 1834 c0 -92 41 -322 69 -389 5 -11 17 -42 26 -70 65 -185 192
-376 357 -537 199 -195 435 -324 693 -381 199 -44 325 -53 500 -38 66 6 170
15 230 21 61 5 135 14 165 19 30 6 98 17 150 26 52 9 115 22 140 27 25 6 74
17 110 25 36 8 126 18 200 22 l135 6 3 128 3 127 -152 0 c-94 0 -165 -5 -186
-12 -52 -19 -63 1 -26 49 54 68 109 167 147 261 20 50 36 98 36 106 0 8 6 41
14 73 8 32 16 92 18 133 l3 75 -130 0 -129 0 -12 -90 c-17 -122 -30 -165 -83
-275 -87 -180 -264 -337 -461 -408 -74 -27 -169 -42 -309 -49 -117 -5 -229 10
-376 51 -88 24 -228 90 -320 151 -103 67 -257 216 -329 318 -59 84 -126 218
-156 312 -12 39 -25 79 -30 91 -4 11 -16 82 -26 157 l-17 137 -129 0 -128 0 0
-66z"/>
<path d="M297 1813 c-4 -3 -7 -59 -7 -123 0 -229 76 -492 202 -698 114 -188
295 -371 468 -476 25 -15 54 -32 65 -39 11 -7 34 -21 50 -33 17 -11 71 -45
120 -74 87 -52 203 -132 390 -269 50 -37 102 -74 117 -84 25 -15 64 -17 411
-17 l385 0 6 23 c11 42 7 222 -6 235 -9 9 -99 12 -345 12 -367 0 -345 -3 -440
67 -28 21 -61 45 -73 53 -12 8 -50 36 -84 61 -67 50 -196 134 -296 194 -166
98 -271 175 -356 260 -88 87 -102 105 -162 190 -40 58 -109 201 -131 276 -39
129 -50 187 -57 309 -4 73 -12 128 -18 132 -14 10 -230 10 -239 1z"/>
<path d="M8437 1103 c-4 -3 -7 -22 -7 -40 0 -30 -13 -48 -98 -134 -86 -89
-102 -101 -140 -106 l-42 -6 0 -128 0 -129 96 0 96 0 174 174 174 174 0 101 0
101 -123 0 c-68 0 -127 -3 -130 -7z"/>
<path d="M4735 683 c-17 -4 -48 -17 -130 -53 -130 -57 -440 -138 -630 -166
-333 -47 -520 -40 -765 29 -56 16 -267 87 -330 112 -173 67 -205 76 -280 73
l-75 -3 -3 -127 -3 -127 33 -5 c18 -3 51 -7 73 -9 22 -3 78 -19 125 -37 74
-28 358 -124 446 -151 175 -52 473 -64 741 -29 83 11 171 24 195 29 23 6 86
20 138 32 52 11 109 25 125 30 98 29 173 52 190 59 11 5 51 19 89 32 79 27 60
39 152 -102 30 -47 89 -126 131 -177 l75 -93 424 0 425 0 -3 128 -3 127 -354
3 c-303 2 -357 4 -372 18 -28 25 -143 202 -194 299 -26 50 -52 96 -57 103 -10
12 -120 15 -163 5z"/>
</g>
</svg>
