<?xml version="1.0" standalone="no"?>
<!DOCTYPE svg PUBLIC "-//W3C//DTD SVG 20010904//EN"
 "http://www.w3.org/TR/2001/REC-SVG-20010904/DTD/svg10.dtd">
<svg version="1.0" xmlns="http://www.w3.org/2000/svg"
 width="300.000000pt" height="300.000000pt" viewBox="0 0 300.000000 300.000000"
 preserveAspectRatio="xMidYMid meet">
<metadata>
Created by potrace 1.10, written by Peter Selinger 2001-2011
</metadata>
<g transform="translate(0.000000,300.000000) scale(0.050000,-0.050000)"
fill="#000000" stroke="none">
<path d="M705 5927 c-41 -17 -30 -59 75 -281 83 -176 96 -217 75 -244 -13 -18
-136 -161 -273 -320 -358 -416 -405 -532 -304 -753 106 -233 342 -301 625
-180 28 12 33 -11 41 -183 9 -220 49 -334 165 -476 l68 -84 -42 -254 c-42
-250 -36 -473 16 -662 9 -31 -65 -127 -322 -420 -449 -512 -457 -529 -466
-976 -6 -328 -8 -337 -51 -353 -151 -58 -216 -348 -99 -440 67 -53 677 -63
796 -13 127 53 181 302 91 417 -51 65 -58 401 -11 493 24 46 322 262 362 262
5 0 9 -205 9 -455 l0 -455 -61 -35 c-116 -65 -160 -297 -78 -402 l42 -53 380
0 381 0 70 70 69 69 -12 146 c-45 537 -26 881 60 1071 26 59 59 159 72 223
l24 116 142 -48 c344 -117 795 -168 1141 -128 l200 22 160 -166 c231 -240 309
-418 309 -705 0 -153 -9 -178 -71 -198 -92 -28 -136 -106 -145 -251 -12 -223
-9 -225 468 -217 l388 6 56 56 55 55 -5 285 c-7 319 -32 446 -136 676 -94 208
-125 422 -91 615 25 141 62 177 62 61 0 -402 440 -687 807 -522 136 61 125
103 -44 166 -115 43 -123 86 -123 712 l0 556 -57 120 c-104 220 -292 344 -549
363 -103 8 -175 27 -254 67 -179 91 -270 100 -997 100 -877 0 -974 29 -1144
342 l-69 128 -11 630 c-10 521 -17 645 -45 717 -146 379 -433 638 -792 714
-128 27 -897 40 -957 16z m774 -122 c-1 -8 -26 -82 -56 -165 l-56 -150 -183
-6 -183 -5 -61 122 c-34 67 -71 144 -81 171 l-18 48 319 0 c176 0 320 -7 319
-15z m357 -84 c218 -104 389 -294 490 -546 38 -96 43 -157 53 -725 l11 -620
55 -117 c77 -165 74 -193 -22 -193 -137 0 -196 34 -283 164 -135 202 -144 264
-148 924 l-3 582 -97 119 c-99 121 -232 371 -232 435 0 49 30 45 176 -23z
m-216 -216 c27 -63 92 -171 145 -239 l95 -125 0 -514 c0 -593 15 -708 122
-920 70 -141 75 -158 46 -189 -154 -171 -740 -171 -699 0 7 29 18 212 25 407
6 195 19 355 29 355 159 0 313 473 192 593 -64 65 -98 20 -84 -110 27 -237
-69 -361 -311 -404 l-143 -26 -234 246 c-128 136 -236 254 -239 263 -4 9 90
129 208 266 l215 251 232 5 231 6 49 125 c59 152 59 152 121 10z m-922 -994
l204 -219 -76 -40 c-284 -147 -569 128 -425 410 54 106 60 103 297 -151z m536
-617 c-14 -331 -29 -359 -106 -201 -49 100 -58 146 -65 320 l-7 204 77 7 c108
9 115 -12 101 -330z m996 -465 c41 -17 117 -32 170 -34 l96 -2 8 -271 c13
-417 140 -625 435 -713 l121 -37 0 -326 c0 -297 -3 -326 -35 -326 -57 0 -365
77 -499 125 l-125 44 -40 132 c-22 72 -67 169 -101 215 -103 143 -213 93 -113
-52 150 -217 169 -545 43 -738 -48 -72 -90 -375 -90 -649 l0 -257 -250 0 -250
0 0 685 0 686 -97 133 c-189 259 -270 511 -266 826 3 215 43 463 74 456 10 -3
55 -18 99 -35 184 -68 497 -17 664 109 42 32 77 58 79 59 1 0 36 -13 77 -30z
m476 -37 c137 -103 203 -119 564 -131 l340 -11 -2 -190 c-4 -352 -180 -549
-488 -549 -332 1 -480 196 -496 654 -10 299 -11 297 82 227z m1919 -208 c368
-181 434 -456 245 -1015 -171 -507 -171 -728 -1 -1108 73 -162 119 -355 108
-452 l-7 -59 -245 -6 -245 -5 0 205 c-1 336 -110 577 -359 793 -208 182 -264
403 -161 639 42 98 43 109 14 139 -101 101 -221 -269 -169 -517 20 -92 -3 -98
-367 -98 l-258 0 0 335 0 335 118 35 c273 80 424 304 438 652 l9 207 373 -7
373 -7 134 -66z m522 -131 c273 -114 313 -233 313 -925 l0 -562 51 -95 50 -96
-121 9 c-319 23 -451 413 -354 1046 38 240 22 367 -64 535 l-59 115 59 0 c33
0 89 -12 125 -27z m-3895 -838 c21 -47 76 -141 123 -210 78 -116 85 -135 85
-255 l0 -130 -115 -73 c-392 -249 -410 -273 -422 -582 l-8 -205 -219 0 -220 0
7 315 c9 408 15 421 407 875 343 398 313 375 362 265z m-256 -1700 l-6 -105
-355 -5 -355 -6 0 79 c0 135 18 142 392 142 l330 0 -6 -105z m1144 -184 c0
-146 -14 -151 -391 -151 l-329 0 0 96 c0 143 3 144 384 144 l336 0 0 -89z
m2840 -10 c0 -136 -15 -141 -399 -141 l-321 0 0 83 c0 150 19 157 393 157
l327 0 0 -99z"/>
<path d="M1151 5133 c-53 -39 -33 -122 31 -129 58 -7 108 40 91 84 -19 50 -83
74 -122 45z"/>
</g>
</svg>
