<?xml version="1.0" standalone="no"?>
<!DOCTYPE svg PUBLIC "-//W3C//DTD SVG 20010904//EN"
 "http://www.w3.org/TR/2001/REC-SVG-20010904/DTD/svg10.dtd">
<svg version="1.0" xmlns="http://www.w3.org/2000/svg"
 width="300.000000pt" height="300.000000pt" viewBox="0 0 300.000000 300.000000"
 preserveAspectRatio="xMidYMid meet">
<metadata>
Created by potrace 1.10, written by Peter Selinger 2001-2011
</metadata>
<g transform="translate(0.000000,300.000000) scale(0.050000,-0.050000)"
fill="#000000" stroke="none">
<path d="M2997 5147 c-157 -189 67 -983 375 -1325 l94 -104 -43 -54 c-24 -30
-70 -99 -102 -154 -32 -55 -66 -112 -76 -128 -14 -23 -49 -24 -216 -3 -863
104 -1287 15 -1654 -347 -308 -304 -463 -823 -377 -1263 l15 -82 -95 -34
c-444 -158 -381 -796 81 -829 145 -11 192 0 289 66 l76 51 92 -61 91 -60 1080
5 c1235 6 1139 -11 1098 188 -58 274 -183 354 -570 364 -151 4 -275 10 -275
15 0 4 36 55 80 113 369 484 25 1085 -595 1038 -125 -9 -66 -163 64 -163 583
0 684 -547 184 -995 -168 -151 -97 -185 387 -185 445 0 560 -43 560 -208 0 -7
-440 -12 -977 -12 l-977 0 -83 60 c-46 33 -83 69 -83 81 0 78 -104 64 -186
-26 -127 -138 -280 -152 -396 -37 -167 168 -63 414 187 440 170 18 167 13 134
207 -118 677 118 1183 675 1450 229 109 578 121 1251 43 235 -27 261 -20 284
78 7 30 54 115 104 189 l92 135 66 -41 c54 -33 76 -37 108 -19 77 40 48 99
-128 264 -316 295 -508 722 -511 1132 0 80 31 76 190 -25 310 -198 572 -522
680 -841 58 -170 51 -164 255 -179 410 -30 535 -93 716 -362 353 -527 345
-621 -63 -760 -190 -64 -359 -77 -518 -38 -233 56 -254 57 -278 12 -44 -81 76
-160 301 -196 l82 -13 -12 -86 c-23 -163 -128 -396 -234 -517 -73 -83 -96
-125 -89 -157 6 -24 33 -152 61 -283 62 -293 61 -291 223 -291 121 0 135 -5
198 -68 139 -139 115 -152 -271 -152 -356 0 -413 -14 -397 -97 18 -90 841
-125 904 -39 112 154 -99 475 -343 521 l-121 23 -38 193 -39 192 68 78 c94
109 182 304 232 511 l42 176 79 13 c536 91 747 363 563 727 -280 555 -513 741
-977 779 l-155 13 -70 160 c-229 528 -944 1118 -1112 917z"/>
</g>
</svg>
